<?xml version="1.0" encoding="utf-8"?>
<!-- Generator: Adobe Illustrator 23.0.2, SVG Export Plug-In . SVG Version: 6.00 Build 0)  -->
<svg version="1.1" id="Layer_1" xmlns="http://www.w3.org/2000/svg" xmlns:xlink="http://www.w3.org/1999/xlink" x="0px" y="0px"
	 viewBox="0 0 495.7 152.4" style="enable-background:new 0 0 495.7 152.4;" xml:space="preserve">
<style type="text/css">
	.st0{fill:#002D74;}
	.st1{fill:none;stroke:#231F20;stroke-width:2;stroke-linecap:round;stroke-linejoin:round;}
</style>
<title>UNION Logo</title>
<path class="st0" d="M159.3,87c0,5.4-2.3,10.5-6.3,14.1c-5.1,4.7-12.2,7-21.2,7c-6.7,0.2-13.2-2.2-18.1-6.7c-5-4.5-7.4-9.6-7.4-15.3
	V38.9h13.8v47.3c0,2.7,1.3,5.3,3.4,6.9c2.4,1.9,5.5,2.9,8.6,2.8c9,0,13.5-3.2,13.5-9.7V38.9h13.8L159.3,87z"/>
<path class="st0" d="M226.2,105.9h-13.6l-27-46.8v46.8h-13.8v-67h13.6l27.1,45.9V38.9h13.8L226.2,105.9z"/>
<path class="st0" d="M251.5,105.9h-13.8v-67h13.8V105.9z"/>
<path class="st0" d="M325.6,73c0,10.5-3,19-9,25.4s-13.8,9.6-23.3,9.6c-10.2,0-18.3-3.5-24.1-10.4c-5.4-6.4-8.2-14.6-8.2-24.7
	c0-9.7,2.6-17.8,7.7-24.2c6-7.2,14.3-10.8,25.1-10.8c10,0,17.9,3.5,23.6,10.4C322.9,54.7,325.6,62.9,325.6,73z M312.4,73
	c0-7.2-1.7-12.9-5.1-17s-8.1-6.2-14.2-6.2c-5.9,0-10.5,2-13.9,6.1s-5.1,9.6-5.1,16.7c0,7.3,1.8,13,5.3,17.2
	c3.5,4.2,8.4,6.2,14.6,6.3c5.2,0.1,10.1-2.2,13.3-6.4C310.7,85.4,312.4,79.9,312.4,73L312.4,73z"/>
<path class="st0" d="M389.6,105.9H376l-27.1-46.8v46.8h-13.8v-67h13.6l27.1,45.9V38.9h13.8V105.9z"/>
<line class="st1" x1="106.1" y1="125.9" x2="389.6" y2="125.9"/>
<line class="st1" x1="389.6" y1="125.9" x2="409.6" y2="105.9"/>
<line class="st1" x1="409.6" y1="105.9" x2="409.6" y2="20.9"/>
<line class="st1" x1="409.6" y1="20.9" x2="389.6" y2="20.9"/>
<line class="st1" x1="389.6" y1="20.9" x2="389.6" y2="1"/>
<line class="st1" x1="389.6" y1="1" x2="474.6" y2="1"/>
<line class="st1" x1="474.6" y1="20.9" x2="474.6" y2="1"/>
<line class="st1" x1="474.6" y1="20.9" x2="454.6" y2="20.9"/>
<line class="st1" x1="454.6" y1="105.9" x2="454.6" y2="20.9"/>
<line class="st1" x1="474.6" y1="125.9" x2="454.6" y2="105.9"/>
<line class="st1" x1="494.7" y1="125.9" x2="474.7" y2="125.9"/>
<line class="st1" x1="494.7" y1="151.4" x2="494.7" y2="125.9"/>
<line class="st1" x1="106.1" y1="125.9" x2="86.1" y2="105.9"/>
<line class="st1" x1="86.1" y1="105.9" x2="86.1" y2="20.9"/>
<line class="st1" x1="86.1" y1="20.9" x2="106.1" y2="20.9"/>
<line class="st1" x1="106.1" y1="20.9" x2="106.1" y2="1"/>
<line class="st1" x1="106.1" y1="1" x2="21.1" y2="1"/>
<line class="st1" x1="21.1" y1="20.9" x2="21.1" y2="1"/>
<line class="st1" x1="21.1" y1="20.9" x2="41.1" y2="20.9"/>
<line class="st1" x1="41.1" y1="105.9" x2="41.1" y2="20.9"/>
<line class="st1" x1="21.1" y1="125.9" x2="41.1" y2="105.9"/>
<line class="st1" x1="1" y1="125.9" x2="21" y2="125.9"/>
<line class="st1" x1="1" y1="151.4" x2="1" y2="125.9"/>
<line class="st1" x1="1" y1="151.4" x2="494.7" y2="151.4"/>
</svg>
